<svg xmlns="http://www.w3.org/2000/svg" viewBox="0 0 256 256"><g><path fill="#041220" d="M216.45 35.82 128 0 39.55 35.82 6 89l3.39 87.22L61 216.36 128 256l67-39.64 51.65-40.11L250 89ZM222 146a15 15 0 0 1-15 15H48a15 15 0 0 1-15-15v-36a15 15 0 0 1 15-15h159a15 15 0 0 1 15 15Z"/><path fill="#041220" d="M207 101H48a9 9 0 0 0-9 9v36a9 9 0 0 0 9 9h159a9 9 0 0 0 9-9v-36a9 9 0 0 0-9-9ZM51 147a4 4 0 1 1 4-4 4 4 0 0 1-4 4Zm12 0a4 4 0 1 1 4-4 4 4 0 0 1-4 4Zm12 0a4 4 0 1 1 4-4 4 4 0 0 1-4 4Zm26 0a2 2 0 0 1 0 4H87a2 2 0 0 1 0-4h5v-36h-5a2 2 0 0 1 0-4h14a2 2 0 0 1 0 4h-5v36Z"/></g></svg>